<mxfile host="app.diagrams.net" modified="2023-12-22T11:26:45.769Z" agent="Mozilla/5.0 (Windows NT 10.0; Win64; x64) AppleWebKit/537.36 (KHTML, like Gecko) Chrome/117.0.0.0 Safari/537.36" etag="qLdDe8JHF4zvYnaUhr7i" version="22.1.11" type="github">
  <diagram name="第 1 页" id="QWm-hRNVQ0d-1hDXaq5B">
    <mxGraphModel dx="1434" dy="758" grid="1" gridSize="10" guides="1" tooltips="1" connect="1" arrows="1" fold="1" page="1" pageScale="1" pageWidth="827" pageHeight="1169" math="0" shadow="0">
      <root>
        <mxCell id="0" />
        <mxCell id="1" parent="0" />
        <mxCell id="KOZFYyWaLmL6V3dUg2Gw-6" style="edgeStyle=orthogonalEdgeStyle;rounded=1;orthogonalLoop=1;jettySize=auto;html=1;exitX=0.5;exitY=1;exitDx=0;exitDy=0;entryX=0.5;entryY=0;entryDx=0;entryDy=0;strokeWidth=2;strokeColor=#0066CC;" edge="1" parent="1" source="KOZFYyWaLmL6V3dUg2Gw-1" target="KOZFYyWaLmL6V3dUg2Gw-4">
          <mxGeometry relative="1" as="geometry" />
        </mxCell>
        <mxCell id="KOZFYyWaLmL6V3dUg2Gw-8" style="edgeStyle=orthogonalEdgeStyle;rounded=1;orthogonalLoop=1;jettySize=auto;html=1;exitX=0.5;exitY=1;exitDx=0;exitDy=0;entryX=0.5;entryY=0;entryDx=0;entryDy=0;strokeWidth=2;strokeColor=#0066CC;fillColor=#0050ef;" edge="1" parent="1" source="KOZFYyWaLmL6V3dUg2Gw-1" target="KOZFYyWaLmL6V3dUg2Gw-5">
          <mxGeometry relative="1" as="geometry" />
        </mxCell>
        <mxCell id="KOZFYyWaLmL6V3dUg2Gw-1" value="&lt;b&gt;&lt;font style=&quot;font-size: 16px;&quot; color=&quot;#ffffff&quot;&gt;酒店告警&lt;/font&gt;&lt;/b&gt;" style="rounded=1;whiteSpace=wrap;html=1;fillColor=#60a917;strokeColor=#2D7600;fontColor=#ffffff;" vertex="1" parent="1">
          <mxGeometry x="360" y="240" width="120" height="60" as="geometry" />
        </mxCell>
        <mxCell id="KOZFYyWaLmL6V3dUg2Gw-16" style="edgeStyle=orthogonalEdgeStyle;rounded=1;orthogonalLoop=1;jettySize=auto;html=1;exitX=0.5;exitY=1;exitDx=0;exitDy=0;entryX=0;entryY=0.5;entryDx=0;entryDy=0;strokeWidth=2;strokeColor=#0066CC;" edge="1" parent="1" source="KOZFYyWaLmL6V3dUg2Gw-4" target="KOZFYyWaLmL6V3dUg2Gw-13">
          <mxGeometry relative="1" as="geometry" />
        </mxCell>
        <mxCell id="KOZFYyWaLmL6V3dUg2Gw-17" style="edgeStyle=orthogonalEdgeStyle;rounded=1;orthogonalLoop=1;jettySize=auto;html=1;exitX=0.5;exitY=1;exitDx=0;exitDy=0;entryX=0;entryY=0.5;entryDx=0;entryDy=0;strokeWidth=2;strokeColor=#0066CC;" edge="1" parent="1" source="KOZFYyWaLmL6V3dUg2Gw-4" target="KOZFYyWaLmL6V3dUg2Gw-14">
          <mxGeometry relative="1" as="geometry" />
        </mxCell>
        <mxCell id="KOZFYyWaLmL6V3dUg2Gw-18" style="edgeStyle=orthogonalEdgeStyle;rounded=1;orthogonalLoop=1;jettySize=auto;html=1;exitX=0.5;exitY=1;exitDx=0;exitDy=0;entryX=0;entryY=0.5;entryDx=0;entryDy=0;strokeWidth=2;strokeColor=#0066CC;" edge="1" parent="1" source="KOZFYyWaLmL6V3dUg2Gw-4" target="KOZFYyWaLmL6V3dUg2Gw-15">
          <mxGeometry relative="1" as="geometry" />
        </mxCell>
        <mxCell id="KOZFYyWaLmL6V3dUg2Gw-4" value="&lt;span style=&quot;font-size: 16px;&quot;&gt;&lt;b&gt;业务&lt;/b&gt;&lt;/span&gt;" style="rounded=1;whiteSpace=wrap;html=1;fillColor=#60a917;strokeColor=#2D7600;fontColor=#ffffff;" vertex="1" parent="1">
          <mxGeometry x="190" y="380" width="120" height="60" as="geometry" />
        </mxCell>
        <mxCell id="KOZFYyWaLmL6V3dUg2Gw-5" value="&lt;span style=&quot;font-size: 16px;&quot;&gt;&lt;b&gt;系统&lt;/b&gt;&lt;/span&gt;" style="rounded=1;whiteSpace=wrap;html=1;fillColor=#60a917;strokeColor=#2D7600;fontColor=#ffffff;strokeWidth=0;" vertex="1" parent="1">
          <mxGeometry x="520" y="380" width="120" height="60" as="geometry" />
        </mxCell>
        <mxCell id="KOZFYyWaLmL6V3dUg2Gw-13" value="&lt;span style=&quot;font-size: 16px;&quot;&gt;&lt;b&gt;业务1&lt;/b&gt;&lt;/span&gt;" style="rounded=1;whiteSpace=wrap;html=1;fillColor=#60a917;strokeColor=#2D7600;fontColor=#ffffff;strokeWidth=0;" vertex="1" parent="1">
          <mxGeometry x="280" y="540" width="120" height="60" as="geometry" />
        </mxCell>
        <mxCell id="KOZFYyWaLmL6V3dUg2Gw-14" value="&lt;span style=&quot;font-size: 16px;&quot;&gt;&lt;b&gt;业务2&lt;/b&gt;&lt;/span&gt;" style="rounded=1;whiteSpace=wrap;html=1;fillColor=#60a917;strokeColor=#2D7600;fontColor=#ffffff;strokeWidth=0;" vertex="1" parent="1">
          <mxGeometry x="280" y="680" width="120" height="60" as="geometry" />
        </mxCell>
        <mxCell id="KOZFYyWaLmL6V3dUg2Gw-15" value="&lt;span style=&quot;font-size: 16px;&quot;&gt;&lt;b&gt;业务2&lt;/b&gt;&lt;/span&gt;" style="rounded=1;whiteSpace=wrap;html=1;fillColor=#60a917;strokeColor=#2D7600;fontColor=#ffffff;strokeWidth=0;" vertex="1" parent="1">
          <mxGeometry x="280" y="820" width="120" height="60" as="geometry" />
        </mxCell>
      </root>
    </mxGraphModel>
  </diagram>
</mxfile>
